/* XPM */
static char *ddd9095a4c984662f2389ccf4f32e38549j7Y3QiKE8z2M9M[] = {
/* columns rows colors chars-per-pixel */
"30 30 256 2 ",
"   c black",
".  c #FFEDD3",
"X  c #FFAC8B",
"o  c #FFAB8E",
"O  c #FFAA8B",
"+  c #2C2C2C",
"@  c #110001",
"#  c #1C1112",
"$  c #140507",
"%  c #2A1E20",
"&  c #2C191D",
"*  c #120D0E",
"=  c #0F0205",
"-  c #201D1E",
";  c #2A2728",
":  c #050002",
">  c #272526",
",  c #545253",
"<  c #030002",
"1  c #0B080A",
"2  c #4E474D",
"3  c #080708",
"4  c #2A272A",
"5  c #FBF6FC",
"6  c #1D1A1E",
"7  c #08000B",
"8  c #28222B",
"9  c #222023",
"0  c #2D2B2E",
"q  c #FEFCFF",
"w  c #E5E3E6",
"e  c #010002",
"r  c #F1EFF4",
"t  c #2B2A2D",
"y  c #232326",
"u  c #28282B",
"i  c #1D1D1E",
"p  c #FCFCFF",
"a  c #555556",
"s  c #141921",
"d  c #080B0E",
"f  c #000500",
"g  c #566940",
"h  c #606F4C",
"j  c #566838",
"k  c #546236",
"l  c #85975C",
"z  c #88985C",
"x  c #58623E",
"c  c #88975B",
"v  c #5F6943",
"b  c #5B6636",
"n  c #899859",
"m  c #8B9861",
"M  c #8C955E",
"N  c #8E965C",
"B  c #8F935A",
"V  c #64663E",
"C  c #FFFCE8",
"Z  c #FFFBE3",
"A  c #FCF4CD",
"S  c #FFFBEA",
"D  c #070603",
"F  c #FBEFCC",
"G  c #FFF9E7",
"H  c #FFEFCD",
"J  c #040301",
"K  c #FFE7B6",
"L  c #FEECC7",
"P  c #FCEDCF",
"I  c #FCEFD6",
"U  c #E8DEC9",
"Y  c #FDECCC",
"T  c #FEEDCE",
"R  c #FFEFD3",
"E  c #FDEED2",
"W  c #FEEDD2",
"Q  c #FEEED4",
"!  c #FDEDD4",
"~  c #FFEDD1",
"^  c #FFEDD3",
"/  c #FFEFD8",
"(  c #53514E",
")  c #FBD29D",
"_  c #FEE7C9",
"`  c #FBE6CA",
"'  c #FFEBD1",
"]  c #FFEDD5",
"[  c #FFF2E0",
"{  c #FFD6A3",
"}  c #FCD6AB",
"|  c #FFE9D0",
" . c #FFECD7",
".. c #FAEAD8",
"X. c #FFDFBF",
"o. c #FFE7CF",
"O. c #FEEBD8",
"+. c #5B5753",
"@. c #E5BF9E",
"#. c #F3D1B5",
"$. c #FFDFC3",
"%. c #371C08",
"&. c #F5B586",
"*. c #FED0AC",
"=. c #A56843",
"-. c #F1B38A",
";. c #D7946E",
":. c #FFDBC6",
">. c #E78F64",
",. c #302018",
"<. c #F3AD8A",
"1. c #FEC0A0",
"2. c #F5BB9E",
"3. c #9B654B",
"4. c #ED9D77",
"5. c #D68F6E",
"6. c #FDAD87",
"7. c #FFAD89",
"8. c #FCAE89",
"9. c #F7AB89",
"0. c #FAAD8B",
"q. c #FCB08D",
"w. c #F8AE8B",
"e. c #FBB18E",
"r. c #F2AF8F",
"t. c #F5CEBC",
"y. c #DA845F",
"u. c #D58362",
"i. c #EF9875",
"p. c #EA9573",
"a. c #ED9876",
"s. c #EE9977",
"d. c #EA9876",
"f. c #E79B7A",
"g. c #FDAA87",
"h. c #FDAB88",
"j. c #FFAC8A",
"k. c #FAAA87",
"l. c #FEAB8A",
"z. c #FFAD8C",
"x. c #FFAE8D",
"c. c #FCAC8B",
"v. c #FCAD8C",
"b. c #FAAD8C",
"n. c #FFB091",
"m. c #F5AE8F",
"M. c #EBA68A",
"N. c #F5AE91",
"B. c #FCB396",
"V. c #FFBDA2",
"C. c #FFE2D6",
"Z. c #DA7E5E",
"A. c #DA8361",
"S. c #DC8563",
"D. c #DB8263",
"F. c #EB9675",
"G. c #EB9576",
"H. c #EF9A79",
"J. c #EE9978",
"K. c #EA9778",
"L. c #FEA686",
"P. c #E9997B",
"I. c #FFA98A",
"U. c #FDAA8A",
"Y. c #FCA989",
"T. c #FFAA8C",
"R. c #FEAB8B",
"E. c #F3A385",
"W. c #FFAC8E",
"Q. c #FCAA8C",
"!. c #FFAE8F",
"~. c #FDAB8E",
"^. c #FDAD8F",
"/. c #FBAC8F",
"(. c #FCAD90",
"). c #FFB99F",
"_. c #EF9576",
"`. c #EC967B",
"'. c #986251",
"]. c #F09E83",
"[. c #FFA98D",
"{. c #FFAB8E",
"}. c #FDA98D",
"|. c #FBA98D",
" X c #FFAB90",
".X c #FCA98E",
"XX c #FFAC91",
"oX c #FFAE93",
"OX c #FBAD92",
"+X c #F8AA90",
"@X c #F6AE95",
"#X c #F4AE96",
"$X c #9E6352",
"%X c #EF967D",
"&X c #9A6455",
"*X c #FFAB93",
"=X c #FEAC93",
"-X c #FAAA92",
";X c #F5AF9B",
":X c #FFBBA7",
">X c #160703",
",X c #EE957E",
"<X c #FFA791",
"1X c #FAA490",
"2X c #FFAA94",
"3X c #FEBAA9",
"4X c #FFCABC",
"5X c #0F0503",
"6X c #EE9784",
"7X c #EA9583",
"8X c #E89583",
"9X c #F7A18E",
"0X c #A26D61",
"qX c #281E1C",
"wX c #E59D91",
"eX c #3A3433",
"rX c #EBBBB4",
"tX c #FA9E94",
"yX c #EB928B",
"uX c #0B0000",
"iX c #070000",
"pX c #020000",
"aX c #010000",
"sX c #040101",
"dX c #110505",
"fX c #391616",
"gX c #332020",
"hX c #2B2626",
"jX c #5E5757",
"kX c #525151",
"lX c #F0EFEF",
"zX c white",
"xX c gray94",
"cX c #323232",
"vX c gray18",
"bX c #2D2D2D",
"nX c #282828",
"mX c #272727",
"MX c #252525",
"NX c #1D1D1D",
"BX c #181818",
"VX c #151515",
"CX c #111111",
"ZX c gray6",
"AX c gray4",
"SX c gray3",
"DX c #060606",
"FX c #040404",
"GX c gray1",
"HX c #010101",
"JX c None",
"KX c black",
"LX c black",
"PX c black",
"IX c black",
"UX c black",
/* pixels */
"JXJXJXJXJXJXJXJXJXJX      < u.4.        JXJXJXJXJXJXJXJXJXJX",
"JXJXJXJXJXJXJXJX    `.Q.W.W.o m.v.^.|.].    JXJXJXJXJXJXJXJX",
"JXJX        pX7 2X XX c.c.c.j.j.7.7.7.h.g.2.aXHX      GXJXJX",
"JXJX        *.<.l. Xo o o o o o o o o c.R.=XU.K       HXJXJX",
"JXJX      { [.o X o o X X X X X o W.o o W.X c.XX$.    AXJXJX",
"JXJX  pXiX} R.o o o  Xz.X X X z.X X z.R.v.X c.r.:.  e SXJXJX",
"JXJXJXe ) O l.X X X o p.X X l.H.R.l.Y.a.z.X X c.k.U GXJXJXJX",
"JXJXJXJX   Xl.O O F.Y.U.s.z.X z.s.j.X R.a.X X T.XXJ JXJXJXJX",
"JXJXJXJX   X6.O O i.O U.U.D.X X O T.I.R.a.X X T.oXD JXJXJXJX",
"JXJXJX< 1XT.7.T.c.A <Xo XXT /.v.o L o L.Z.X X X R.o NXJXJXJX",
"JXJXJXaX+Xj.j.O w.I F N.#X. E OX@XY P ` ;XX X R.W.o i JXJXJX",
"JXJXJXaX+XT.X O 0.v V ~ ~ . Q | . . . h x 7.X T.o ~.3 JXJXJX",
"JXJXJXHX-XH.7.T.T.j b ~ ~ . ] ] . ~ ! g k X X W.o }.HXJXJXJX",
"JXJXJXsX9.d.X O O l c R . . W . . ~ E m M X X !.o .XAXJXJXJX",
"JXJXaX6Xf.|.R.O 8.z n . . Q . . . ' . N B X X U.o T.8XVXJXJX",
"JXJX  _.F.F.X O b._ ' ] .  .J.>.. . ~ ~ ' l.X W.o T.7XZXJXJX",
"JXJXaX,Xi.A.X O T.B.X.C.[ / Q H Q . o.:.1.X X z.G.P.7XDXJXJX",
"JXJX  wXP.y.x.O O *X0X$XfXgX-.&.& %.3.=.q.X z.n.S.%X8XAXJXJX",
"JXJXJX  K.E.5.(. X3X   ./ ,.% qX& ..O.@ ).7.e.;.M.yXHXJXJXJX",
"JXJXJX  9X  : V.:X  2 Z S >XdX5X= C G (   :X4XuX  tXd JXJXJX",
"JXJXJXJX  rX        jX+.8 5 r lXzXa kX, e       @.  JXJXJXJX",
"JXJXJXJXJX  JXJXJX    > > 6 p q 9 t y     JXJXJX  JXJXJXJXJX",
"JXJXJXJXJXJXJXJXJXJX  + + xX+ 0 w t u   JXJXJXJXJXJXJXJXJXJX",
"JXJXJXJXJXJXJXJXJXHXbX+ + + + + + + + cX  JXJXJXJXJXJXJXJXJX",
"JXJXJXJXJXJXJXJXJXBXbX+ + + + + + + + bXFXJXJXJXJXJXJXJXJXJX",
"JXJXJXJXJXJXJXJXHXnXbX+ + + + + + + + + vX  JXJXJXJXJXJXJXJX",
"JXJXJXJXJXJXJXJXZX+ MXhX; ; - NX4 mX> nXnXCXJXJXJXJXJXJXJXJX",
"JXJXJXJXJXJXJXJXJXJXJX$ '.1 JXJXeX&X* JXJXJXJXJXJXJXJXJXJXJX",
"JXJXJXJXJXJXJXJXJXJXJXf #.  JXJXpXt.HXJXJXJXJXJXJXJXJXJXJXJX",
"JXJXJXJXJXJXJXJXJXJXJX< s   JXJXHX# HXJXJXJXJXJXJXJXJXJXJXJX"
};
