/* XPM */
static char *d238da401eb74ebaeca7c609d6afc3f46dmYOZaDELWw0qsU[] = {
/* columns rows colors chars-per-pixel */
"30 30 256 2 ",
"   c black",
".  c #FFAD8B",
"X  c #FFA987",
"o  c #FEAF8B",
"O  c gray18",
"+  c #F68485",
"@  c #FF9395",
"#  c #0A0001",
"$  c #2B1C20",
"%  c #EFBECB",
"&  c #281D22",
"*  c #222021",
"=  c #050006",
"-  c #060507",
";  c #070315",
":  c #16113D",
">  c #000012",
",  c #010219",
"<  c #01030B",
"1  c #05060A",
"2  c #000207",
"3  c #020608",
"4  c #000507",
"5  c #010A0D",
"6  c #000101",
"7  c #010303",
"8  c #202222",
"9  c #050706",
"0  c #001400",
"q  c #000F00",
"w  c #000700",
"e  c #000200",
"r  c #282A28",
"t  c #546439",
"y  c #505F34",
"u  c #E4F1C2",
"i  c #5C643B",
"p  c #616740",
"a  c #919662",
"s  c #8F9361",
"d  c #EFF3BB",
"f  c #919361",
"g  c #939563",
"h  c ivory",
"j  c #FFFDEB",
"k  c #44412D",
"l  c #F5EFC8",
"z  c #F6EDC4",
"x  c #FAEEC5",
"c  c #F3EAC7",
"v  c #F7EFD6",
"b  c #FEF1CD",
"n  c #F4EAD0",
"m  c #F9EFD6",
"M  c #FFFAED",
"N  c #FAE9C4",
"B  c #F5E9CF",
"V  c #FEF2DA",
"C  c #FFF5E0",
"Z  c #FCF5E7",
"A  c #FFEAC4",
"S  c #2E2516",
"D  c #5B4D37",
"F  c #FFE7BE",
"G  c #FFEBC9",
"H  c #FCDEB3",
"J  c #FCE0B6",
"K  c #FFE7C4",
"L  c #FFE8C6",
"P  c #FEEFD8",
"I  c #FCE9D0",
"U  c #FFEDD5",
"Y  c #FFE9CE",
"T  c #F5E7D5",
"R  c #FED19D",
"E  c #FFDFBB",
"W  c #FFECD6",
"Q  c #FFD8AF",
"!  c #FFECD8",
"~  c #FFCCA0",
"^  c #FED3AE",
"/  c #FED1AD",
"(  c #FFEBDB",
")  c #FFAC7E",
"_  c #C88A66",
"`  c #FEAE82",
"'  c #E3A581",
"]  c #FFC6A5",
"[  c #030100",
"{  c #FDAA7D",
"}  c #FDB089",
"|  c #FFB691",
" . c #CF7C55",
".. c #D37F59",
"X. c #EA946E",
"o. c #FDA379",
"O. c #E4936D",
"+. c #FEA57B",
"@. c #E89872",
"#. c #E79771",
"$. c #FFA87F",
"%. c #EB9B75",
"&. c #EF9E78",
"*. c #FDAA82",
"=. c #F1A17C",
"-. c #FFAC84",
";. c #DF9877",
":. c #FBAB87",
">. c #FBAC87",
",. c #FCAD88",
"<. c #FEAE8A",
"1. c #FDAE8A",
"2. c #FCAE89",
"3. c #FEB08C",
"4. c #F8AD89",
"5. c #F7AC89",
"6. c #FFB38F",
"7. c #FFB593",
"8. c #EFAB8B",
"9. c #FFBD9E",
"0. c #DA7F5B",
"q. c #EF936B",
"w. c #E9946F",
"e. c #EE9572",
"r. c #EC9674",
"t. c #EB9674",
"y. c #EF9C79",
"u. c #E59574",
"i. c #FFA985",
"p. c #FFAA85",
"a. c #FFA986",
"s. c #FCA785",
"d. c #FBA887",
"f. c #FFAD8A",
"g. c #FCAB88",
"h. c #FFAE8B",
"j. c #FDAC8A",
"k. c #FFAE8C",
"l. c #FDAE8D",
"z. c #FFB190",
"x. c #EBA485",
"c. c #FFB291",
"v. c #F7AB8D",
"b. c #D47753",
"n. c #D17D5F",
"m. c #D37F61",
"M. c #ED9370",
"N. c #EC9070",
"B. c #E39173",
"V. c #FAA282",
"C. c #EA997A",
"Z. c #E89779",
"A. c #E8977A",
"S. c #E79679",
"D. c #FEA786",
"F. c #FFA988",
"G. c #FFA788",
"H. c #FEA887",
"J. c #E7997B",
"K. c #FCAA8A",
"L. c #FCA98A",
"P. c #FBA98A",
"I. c #EB9E81",
"U. c #FFAC8D",
"Y. c #FCAA8D",
"T. c #F9A98C",
"R. c #F5A789",
"E. c #FBAC8E",
"W. c #FCAC8F",
"Q. c #E99F84",
"!. c #FBAC90",
"~. c #FEAE92",
"^. c #F8AC90",
"/. c #FFB497",
"(. c #FBB095",
"). c #BB8570",
"_. c #EF9273",
"`. c #F0987C",
"'. c #EA9679",
"]. c #FBA486",
"[. c #FDA68A",
"{. c #FFA98D",
"}. c #FBAA8E",
"|. c #FFAB91",
" X c #FFAC92",
".X c #E7AE9B",
"XX c #EDBEAF",
"oX c #D1785F",
"OX c #F79274",
"+X c #F49073",
"@X c #E2876C",
"#X c #EA9075",
"$X c #EF9379",
"%X c #EE9479",
"&X c #FCA389",
"*X c #FFA88E",
"=X c #CF8773",
"-X c #FFA78F",
";X c #FFA991",
":X c #DD9E8B",
">X c #FFB8A5",
",X c #2E1914",
"<X c #DD7A63",
"1X c #F58F76",
"2X c #F09178",
"3X c #EF9882",
"4X c #FEA48D",
"5X c #F5A692",
"6X c #F5A996",
"7X c #FB9882",
"8X c #E0A79A",
"9X c #EF8975",
"0X c #F49786",
"qX c #EF9686",
"wX c #F29A8A",
"eX c #F9B2A5",
"rX c #F5CFC8",
"tX c #080100",
"yX c #250804",
"uX c #FDB9B0",
"iX c #0E0100",
"pX c #DA827B",
"aX c #ECA49E",
"sX c #FCB7B0",
"dX c #FFB6B1",
"fX c #260403",
"gX c #FFAEAC",
"hX c #150000",
"jX c #0D0000",
"kX c #070000",
"lX c #050000",
"zX c #140808",
"xX c #F28180",
"cX c #F58786",
"vX c #1C1A1A",
"bX c #212020",
"nX c #FBFBFB",
"mX c #E9E9E9",
"MX c gray89",
"NX c gray20",
"BX c gray19",
"VX c #2A2A2A",
"CX c gray15",
"ZX c #1E1E1E",
"AX c #1D1D1D",
"SX c gray10",
"DX c #181818",
"FX c #151515",
"GX c gray4",
"HX c #040404",
"JX c #020202",
"KX c None",
"LX c black",
"PX c black",
"IX c black",
"UX c black",
/* pixels */
"KXKXKXKXKXKXKXKXKX6       q w =X0X[     KXKXKXKXKXKXKXKXKXKX",
"KXKXKXKXKXKXKX< < cXo.+.+.{ ) ~.d.` } $.    KXKXKXKXKXKXKXKX",
"KXKXKXKXKXKX4 `.{.*XE.E.a.X X a.U.R.4./.        KXKXKXKXKXKX",
"KXKXKXKXKXKX4 *X X X~.~.. X X X G.v.F >         KXKXKXKXKXKX",
"KXKXKXKXKX# N.*X X Xo o o ^./ T.^ 4XE kX  e kX  KXKXKXKXKXKX",
"KXKXKXKXKXfX*.|. X Xo ,.<.L.5.K.[.l.Q.A hX[ kXgX- KXKXKXKXKX",
"KXKXKXKXlX9X{.*X|. Xo >.%.o o . h.o {.8.R ~ q.6X,XKXKXKXKXKX",
"KXKXKXKX  -.X *X%X X. . %.o o o o o ~.}.o . D.eXzXKXKXKXKXKX",
"KXKXKXKX6 p.X -X*X1XF.p.g.y.o o o o Y.!.2.o V.5X7 KXKXKXKXKX",
"KXKXKXKX= oX|.H.u x qXwX&X&.o o o o o o o o o ].x.9 KXKXKXKX",
"KXKXKXKXKX  <X3X7XP B B G _ ;X>.o o . X . o o :.I.1 KXKXKXKX",
"KXKXKXKXKXKX; m v I p i ! d 2X>.2.>.. . . o o 1..X1 KXKXKXKX",
"KXKXKXKXKXKXiXU U n t y U z _.>.2.&.. . f.6.%.:.;.3 KXKXKXKX",
"KXKXKXKXKXKX6 U U l g f U N +XX 2.%.>.o h.6.=.s.#Xu.GXKXKXKX",
"KXKXKXKXKXKX6 U W c s a V b OXX j.O.3.o o 6.@.e.$Xr.GXKXKXKX",
"KXKXKXKXKXKXJXZ G Y Q Q H X.X o 2.2.#.o >.c.e.%X'.r.GXKXKXKX",
"KXKXKXKXKXKX    M C L K J w.. o o k. .o 7.b.e.%XJ.t.GXKXKXKX",
"KXKXKXKXKXKX# xX7 tX5 2 B.f.. o <.k...| 0.e.e.e.pX8XGXKXKXKX",
"KXKXKXKXKXKX0 + # ( T D W.z.. ~.(.>Xm.n.Z.@X' :X% 6 KXKXKXKX",
"KXKXKXKXKXKX  @ jXh j k C.M.i.P.] : A.S.D.9.,     KXKXKXKXKX",
"KXKXKXKXKXKXKX    DXS XXsXsXuXrX$ yXaXdX      KXKXKXKXKXKXKX",
"KXKXKXKXKXKXKXKXKX    bX* CX* 8 r   HX  KXKXKXKXKXKXKXKXKXKX",
"KXKXKXKXKXKXKXKXKX  mXO O VXAXAX*     KXKXKXKXKXKXKXKXKXKXKX",
"KXKXKXKXKXKXKXKXKX  nXO O O O O O BX  KXKXKXKXKXKXKXKXKXKXKX",
"KXKXKXKXKXKXKXKX  O O O O O O O O O NX  KXKXKXKXKXKXKXKXKXKX",
"KXKXKXKXKXKXKXKX  O O O O O O O O O NX  KXKXKXKXKXKXKXKXKXKX",
"KXKXKXKXKXKXKXKXZXZXZXbX& bXvXZXZXZXZXFXKXKXKXKXKXKXKXKXKXKX",
"KXKXKXKXKXKXKXKXKXKXKXKX  ).  KXKXKXKXKXKXKXKXKXKXKXKXKXKXKX",
"KXKXKXKXKXKXKXKXKXKXKXKX  MX  KXKXKXKXKXKXKXKXKXKXKXKXKXKXKX",
"KXKXKXKXKXKXKXKXKXKXKXKXSXGXSXKXKXKXKXKXKXKXKXKXKXKXKXKXKXKX"
};
