/* XPM */
static char *_82c0f94b3dc41fc898b6ebd477cefc7LP7pHIyGNSsNCe04[] = {
/* columns rows colors chars-per-pixel */
"30 30 256 2 ",
"   c #FEAF8B",
".  c black",
"X  c #FFAD8B",
"o  c #FFAC92",
"O  c #FFA987",
"+  c #FBAC87",
"@  c gray18",
"#  c #F5959A",
"$  c #1C0002",
"%  c #0B0103",
"&  c #2C2023",
"*  c #342A2D",
"=  c #270A14",
"-  c #010001",
";  c #262526",
":  c #04001A",
">  c #010007",
",  c #00000D",
"<  c #00000A",
"1  c #000007",
"2  c #010116",
"3  c #010115",
"4  c #12121C",
"5  c #111218",
"6  c #00030B",
"7  c #0A1421",
"8  c #010B14",
"9  c #081618",
"0  c #222525",
"q  c #000302",
"w  c #000401",
"e  c #000A00",
"r  c #000100",
"t  c #010601",
"y  c #010201",
"u  c #050D03",
"i  c #080701",
"p  c #EBCB9E",
"a  c #F5DBBB",
"s  c #FFD5A6",
"d  c #E9E8E7",
"f  c #FFD0A3",
"g  c #FFCFA4",
"h  c #FDD3AD",
"j  c #E9B180",
"k  c #FFD5B0",
"l  c #F9D4B4",
"z  c #F4D8C1",
"x  c #EFB490",
"c  c #FFAE7F",
"v  c #D39470",
"b  c #F4AF86",
"n  c #F4AF87",
"m  c #EABA9F",
"M  c #C6815C",
"N  c #F8A579",
"B  c #FCA97C",
"V  c #FCA97D",
"C  c #FFAD81",
"Z  c #E29E7B",
"A  c #FFB692",
"S  c #FFBC99",
"D  c #CC967B",
"F  c #D7835E",
"G  c #DA8761",
"H  c #E79670",
"J  c #E89872",
"K  c #E99973",
"L  c #E79872",
"P  c #EC9C76",
"I  c #F8A984",
"U  c #FCAB87",
"Y  c #FCAC87",
"T  c #FCAE89",
"R  c #F7AB87",
"E  c #EFA584",
"W  c #FCB08D",
"Q  c #FFB591",
"!  c #F3AE8D",
"~  c #F5B395",
"^  c #EE9572",
"/  c #ED9671",
"(  c #EF9774",
")  c #FFAA87",
"_  c #FEA987",
"`  c #FCA886",
"'  c #FFAB89",
"]  c #FFAC8A",
"[  c #FDAA89",
"{  c #E69C7C",
"}  c #FFAC8B",
"|  c #FEAB8A",
" . c #FEAD8A",
".. c #FFAD8C",
"X. c #FEAE8B",
"o. c #FEAD8C",
"O. c #FDAC8C",
"+. c #FCAB8B",
"@. c #FDAE8D",
"#. c #E49D7F",
"$. c #FFB08F",
"%. c #F8AC8E",
"&. c #AE7A64",
"*. c #E08663",
"=. c #EE9573",
"-. c #E99778",
";. c #FFA887",
":. c #E9987B",
">. c #FFA988",
",. c #FFAB8C",
"<. c #FFAD8D",
"1. c #FDAB8D",
"2. c #FCAB8D",
"3. c #FBAB8E",
"4. c #FCAD90",
"5. c #FFAF93",
"6. c #FEAE92",
"7. c #FCAF93",
"8. c #F0AE96",
"9. c #E7B39F",
"0. c #C6A294",
"q. c #EE9477",
"w. c #EC9579",
"e. c #EB9A7F",
"r. c #FEA98C",
"t. c #E7B5A5",
"y. c #EAB9A9",
"u. c #DD8166",
"i. c #FDA48C",
"p. c #FFA78E",
"a. c #FFA88E",
"s. c #FDA88E",
"d. c #E59782",
"f. c #FFAC93",
"g. c #C48C7C",
"h. c #D99E8C",
"j. c #D7AEA3",
"k. c #F6947D",
"l. c #F0957E",
"z. c #E79682",
"x. c #D39686",
"c. c #ECAD9E",
"v. c #0D0301",
"b. c #E89582",
"n. c #F79481",
"m. c #F39E8E",
"M. c #F29E8E",
"N. c #FFA99C",
"B. c #F7A99E",
"V. c #E3B0A9",
"C. c #FF9D90",
"Z. c #EDA9A1",
"A. c #D37C75",
"S. c #EA9A93",
"D. c #DD9790",
"F. c #DCA6A4",
"G. c #250000",
"H. c #110000",
"J. c #0E0000",
"K. c #080000",
"L. c #070000",
"P. c #050000",
"I. c #040000",
"U. c #010000",
"Y. c #080101",
"T. c #F58987",
"R. c #E0ADAC",
"E. c #F9F9F9",
"W. c gray96",
"Q. c gray20",
"!. c #323232",
"~. c gray19",
"^. c #2D2D2D",
"/. c #2C2C2C",
"(. c #2A2A2A",
"). c #282828",
"_. c #252525",
"`. c #111111",
"'. c #060606",
"]. c gray2",
"[. c gray1",
"{. c #020202",
"}. c #010101",
"|. c None",
" X c black",
".X c black",
"XX c black",
"oX c black",
"OX c black",
"+X c black",
"@X c black",
"#X c black",
"$X c black",
"%X c black",
"&X c black",
"*X c black",
"=X c black",
"-X c black",
";X c black",
":X c black",
">X c black",
",X c black",
"<X c black",
"1X c black",
"2X c black",
"3X c black",
"4X c black",
"5X c black",
"6X c black",
"7X c black",
"8X c black",
"9X c black",
"0X c black",
"qX c black",
"wX c black",
"eX c black",
"rX c black",
"tX c black",
"yX c black",
"uX c black",
"iX c black",
"pX c black",
"aX c black",
"sX c black",
"dX c black",
"fX c black",
"gX c black",
"hX c black",
"jX c black",
"kX c black",
"lX c black",
"zX c black",
"xX c black",
"cX c black",
"vX c black",
"bX c black",
"nX c black",
"mX c black",
"MX c black",
"NX c black",
"BX c black",
"VX c black",
"CX c black",
"ZX c black",
"AX c black",
"SX c black",
"DX c black",
"FX c black",
"GX c black",
"HX c black",
"JX c black",
"KX c black",
"LX c black",
"PX c black",
"IX c black",
"UX c black",
/* pixels */
"|.|.|.|.|.|.|.|.|.|.. . . . U.n.g.< . '.|.|.|.|.|.|.|.|.|.|.",
"|.|.|.|.|.|.|.|.> > T.B V N ~ f.7.x C v : u |.|.|.|.|.|.|.|.",
"|.|.}.. . U.U.J.a.a.a.3.3.O O O O ) + + + 9.v.8 . . . . |.|.",
"|.|.}.. . I.f b a.o o 6.6.X X O O _ + + + s.j l . . . . |.|.",
"|.|.. . . s 1.a.a.o o       X O %.h i.k o   p.! a . . . |.|.",
"|.|.. t K.g } <.o o o       X.U [ ,.@.| W   o.R z . . . |.|.",
"|.|.|.= p + ;.O a.o o           X X         + + n d . |.|.|.",
"|.|.|.|.. 3.[ O a.o o                       X X N.. |.|.|.|.",
"|.|.|.|.. 3.O.O a.o o                       X O N.. |.|.|.|.",
"|.|.|.e C.O ] O a.o o                           r.m . |.|.|.",
"|.|.|.2 2.O ] O                       X X X   +   y.. |.|.|.",
"|.|.|.2 2.O ] O                       X X X   + P t.. |.|.|.",
"|.|.|.2 2.P  .O                       X X X   I ^ S.U.|.|.|.",
"|.|.|.w ` :.+.O                               Q ( F.1 |.|.|.",
"|.|.6 k.e.3.O.O                                 O d.Z . |.|.",
"|.|.w ^ ^ J  .O X X                             + b.h.. |.|.",
"|.|.q / =.G X.O >...      + K                   F z.h.. |.|.",
"|.|.7 # q.*.$.O a.o       P P J             S A u.A.V.. |.|.",
"|.|.|.3 -.#.x.c 3.6.] T + ^ L H T   X X X 5.E M { m.P.|.|.|.",
"|.|.|.3 -.Y.i w.3.6.' J + ^ L J P Y O O O 4.l., G.M.P.|.|.|.",
"|.|.|.|.{.R.y [.$ B.Z.j.U.D.D.D.0.- c.8.8.'.% L.|.. |.|.|.|.",
"|.|.|.|.|.. |.|.|.. }.. (.. . . . ).}.[.. |.|.|.|.|.|.|.|.|.",
"|.|.|.|.|.|.|.|.|.|.}.(.@ @ @ @ (.(.!.. |.|.|.|.|.|.|.|.|.|.",
"|.|.|.|.|.|.|.|.|.{.@ @ @ @ @ @ @ @ @ Q.. |.|.|.|.|.|.|.|.|.",
"|.|.|.|.|.|.|.|.|.. @ @ @ @ @ @ @ @ @ @ . |.|.|.|.|.|.|.|.|.",
"|.|.|.|.|.|.|.|.. (._.* * /.@ ~.^.^.^.Q.Q.}.|.|.|.|.|.|.|.|.",
"|.|.|.|.|.|.|.|.. . . & 5 `.. . 0 9 ; . . . |.|.|.|.|.|.|.|.",
"|.|.|.|.|.|.|.|.|.|.|.4 &.. |.|.H.D r |.|.|.|.|.|.|.|.|.|.|.",
"|.|.|.|.|.|.|.|.|.|.|.].E.. |.|.{.W.. |.|.|.|.|.|.|.|.|.|.|.",
"|.|.|.|.|.|.|.|.|.|.|.. . . |.|.. . . |.|.|.|.|.|.|.|.|.|.|."
};
