/* XPM */
static char *_c70e3baf1404d7f8e77b393c9cd0c2avaivG0iu781wXEXH[] = {
/* columns rows colors chars-per-pixel */
"30 30 16 1 ",
"  c gray40",
". c #E9EFFA",
"X c #C6EFFC",
"o c #B2E7F8",
"O c #A2DDEF",
"+ c #93D3E6",
"@ c #939393",
"# c #8ACDE1",
"$ c gray32",
"% c #484848",
"& c #353535",
"* c gray16",
"= c gray13",
"- c #A4A4A4",
"; c #808080",
": c None",
/* pixels */
"::::::::::::::::::::::::::::::",
"::::::::::::::::::::::::::::::",
"::::::::::::::::::::::::::::::",
"::::::::::::::::::::::::::::::",
"::::::::::::::::::::::::::::::",
"::::::::::::::::::::::::::::::",
"::::::::::::::::::::::::::::::",
"::::::::::::::::::::::::::::::",
"::::::::::::::::::::::::::::::",
":::::::::::=&$:XXX::::::::::::",
"::::::::::&===XO+#o:::::::::::",
"::::::::::&=;==##+#o::::::::::",
":::::::::X$&&;&$X#+#o:::::::::",
":::::::XXO#$=$==XX#+#o::::::::",
":::::::oO#+#&=@=#XX#+Xo:::::::",
":::::::oXO#+#&@&$#+XX-::::::::",
":::::::oX%O#+==@=XX % ::::::::",
":::::::.O*%O#$=@= %% Xo:::::::",
"::::::::.O*%OX&@&% XX..:::::::",
":::::::::.O*% %&@Xo..:::::::::",
"::::::::::.O*% X@..:::::::::::",
":::::::::::.OXo..:::::::::::::",
"::::::::::::...::.::::::::::::",
"::::::::::::::::::::::::::::::",
"::::::::::::::::::::::::::::::",
"::::::::::::::::::::::::::::::",
"::::::::::::::::::::::::::::::",
"::::::::::::::::::::::::::::::",
"::::::::::::::::::::::::::::::",
"::::::::::::::::::::::::::::::"
};
