/* XPM */
static char *_ae5f76c166a4cb59681c89fdb6dede0BDK93f9PNF9N37nH[] = {
/* columns rows colors chars-per-pixel */
"30 30 16 1 ",
"  c #FDEADF",
". c #FFECE1",
"X c #FEECE1",
"o c #FEEBE1",
"O c #FEEBE0",
"+ c #FDEAE0",
"@ c #FDEADE",
"# c #FDE9DE",
"$ c #FCE9DE",
"% c #FDEBE0",
"& c None",
"* c black",
"= c black",
"- c black",
"; c black",
": c black",
/* pixels */
"&&&&&&&&&&&&&&&&&&&&&&&&&&&&&&",
"&&&&&&&&&&&&&&&&&&&&&&&&&&&&&&",
"&&&&&&&&&&&&&&&&&&&&&&&&&&&&&&",
"&&&&&&&&&&&&&&&&&&&&&&&&&&&&&&",
"&&&&&&&&&&&&&&&&&&&&&&&&&&&&&&",
"&&&&&&&&&&&&&&&&&&&&&&&&&&&&&&",
"&&&&&&&&&&&&&&&&&&&&&&&&&&&&&&",
"&&&&&&&&&&&&&&&&&&&&&&&&&&&&&&",
"&&&&&&&&&&&&&&&&&&&&&&&&&&&&&&",
"&&&&&&&&&&&.XO&###&&&&&&&&&&&&",
"&&&&&&&&&&X...#   @&&&&&&&&&&&",
"&&&&&&&&&&X.%..    @&&&&&&&&&&",
"&&&&&&&&&#OXX%XO#   @&&&&&&&&&",
"&&&&&&&##  O.O..##   @&&&&&&&&",
"&&&&&&&@    X.+. ##  #@&&&&&&&",
"&&&&&&&@#    X+XO  ## &&&&&&&&",
"&&&&&&&@#o   ..+.##OoO&&&&&&&&",
"&&&&&&&$ .o  O.+.OooO#@&&&&&&&",
"&&&&&&&&$ .o #X+XoO##$$&&&&&&&",
"&&&&&&&&&$ .oOoX+#@$$&&&&&&&&&",
"&&&&&&&&&&$ .oO#+$$&&&&&&&&&&&",
"&&&&&&&&&&&$ #@$$&&&&&&&&&&&&&",
"&&&&&&&&&&&&$$$&&$&&&&&&&&&&&&",
"&&&&&&&&&&&&&&&&&&&&&&&&&&&&&&",
"&&&&&&&&&&&&&&&&&&&&&&&&&&&&&&",
"&&&&&&&&&&&&&&&&&&&&&&&&&&&&&&",
"&&&&&&&&&&&&&&&&&&&&&&&&&&&&&&",
"&&&&&&&&&&&&&&&&&&&&&&&&&&&&&&",
"&&&&&&&&&&&&&&&&&&&&&&&&&&&&&&",
"&&&&&&&&&&&&&&&&&&&&&&&&&&&&&&"
};
