/* XPM */
static char *db88041477004458f8adda6859a311634CMe9BkLzMOOGQeB[] = {
/* columns rows colors chars-per-pixel */
"30 30 16 1 ",
"  c #F9E5DA",
". c #FEECE1",
"X c #FEEBE1",
"o c #FDEBE0",
"O c #FDEAE0",
"+ c #FCEADF",
"@ c #FCE9DF",
"# c #FBE6DB",
"$ c #FAE8DD",
"% c #FAE6DB",
"& c #FAE6DA",
"* c #F8E5DA",
"= c #FBE9DE",
"- c #FAE7DD",
"; c None",
": c black",
/* pixels */
";;;;;;;;;;;;;;;;;;;;;;;;;;;;;;",
";;;;;;;;;;;;;;;;;;;;;;;;;;;;;;",
";;;;;;;;;;;;;;;;;;;;;;;;;;;;;;",
";;;;;;;;;;;;;;;;;;;;;;;;;;;;;;",
";;;;;;;;;;;;;;;;;;;;;;;;;;;;;;",
";;;;;;;;;;;;;;;;;;;;;;;;;;;;;;",
";;;;;;;;;;;;;;;;;;;;;;;;;;;;;;",
";;;;;;;;;;;;;;;;;;;;;;;;;;;;;;",
";;;;;;;;;;;;;;;;;;;;;;;;;;;;;;",
";;;;;;;;;;;.o+;   ;;;;;;;;;;;;",
";;;;;;;;;;o... &%# ;;;;;;;;;;;",
";;;;;;;;;;o.=..##%# ;;;;;;;;;;",
";;;;;;;;; +oo=o+ #%# ;;;;;;;;;",
";;;;;;;  &#+.+..  #%# ;;;;;;;;",
";;;;;;; &#%#o.$.#  #%  ;;;;;;;",
";;;;;;;  &#%#o$o+#%  -;;;;;;;;",
";;;;;;;  O&#%..$.  @O@;;;;;;;;",
";;;;;;;*&XO&#+.$.@OO@  ;;;;;;;",
";;;;;;;;*&XO& o$oO@  **;;;;;;;",
";;;;;;;;;*&XO@Oo$  **;;;;;;;;;",
";;;;;;;;;;*&XO@ $**;;;;;;;;;;;",
";;;;;;;;;;;*&  **;;;;;;;;;;;;;",
";;;;;;;;;;;;***;;*;;;;;;;;;;;;",
";;;;;;;;;;;;;;;;;;;;;;;;;;;;;;",
";;;;;;;;;;;;;;;;;;;;;;;;;;;;;;",
";;;;;;;;;;;;;;;;;;;;;;;;;;;;;;",
";;;;;;;;;;;;;;;;;;;;;;;;;;;;;;",
";;;;;;;;;;;;;;;;;;;;;;;;;;;;;;",
";;;;;;;;;;;;;;;;;;;;;;;;;;;;;;",
";;;;;;;;;;;;;;;;;;;;;;;;;;;;;;"
};
