/* XPM */
static char *_0b446ee70b34988a0b918cb9f7ccfa7iK7MAc5DL7J0VRku[] = {
/* columns rows colors chars-per-pixel */
"30 30 64 1 ",
"  c #090305",
". c #F1D0BD",
"X c #E7E0C3",
"o c #D9B18D",
"O c #C5B593",
"+ c #A79871",
"@ c #856A4F",
"# c #55675B",
"$ c #396870",
"% c #32463A",
"& c #212D21",
"* c #0A0305",
"= c #0B0205",
"- c #080204",
"; c #0A0406",
": c #0A0306",
"> c #4C4C4E",
", c #1C1D22",
"< c #82B2BC",
"1 c #2E545B",
"2 c #345E66",
"3 c #719EA4",
"4 c #699196",
"5 c #31453A",
"6 c #53675B",
"7 c #54675B",
"8 c #29392E",
"9 c #2A372E",
"0 c #47544B",
"q c #465249",
"w c #EBEBE3",
"e c #9A8848",
"r c #A79870",
"t c #978861",
"y c #A79872",
"u c #887A5C",
"i c #C4B492",
"p c #7C6D4E",
"a c #A49578",
"s c #4C3D24",
"d c #604D2F",
"f c #A19074",
"g c #4E3E26",
"h c #5F4C2F",
"j c #856A4E",
"k c #D8B18D",
"l c #F4D4C0",
"z c #F0D1BD",
"x c #F2D1BE",
"c c #F2D2C0",
"v c #8B2D23",
"b c white",
"n c #9A9A9A",
"m c None",
"M c black",
"N c black",
"B c black",
"V c black",
"C c black",
"Z c black",
"A c black",
"S c black",
"D c black",
"F c black",
/* pixels */
"mmmmmmmmmmmmmm mmmmmmmmmmmmmmm",
"mmmmmmmmmmmm  O    mmmmmmmmmmm",
"mmmmmmmmmm  fOO+OOO  mmmmmmmmm",
"mmmmmmbmm uyOr+++OOOO mmmmmmmm",
"mmmmmmmm-OOO+OOOOOOOOO mmmmmmm",
"mmmmmmm  XXO++OOOXOXOX mmmmmmm",
"mmmmmm OOXOO+OOOOOOOOXX mmmmmm",
"mmmmmmm +OO@Oj@@OOOOOOOO mmmmm",
"mmmmmmm OOO@d@@@@O+OOO+ mmmmmm",
"mmmmmm OOOO......O+O+OO-mmmmmm",
"mmmmmmm OtO......O.Oztai-mmmmm",
"mmmmmmm dt...........ps mmmmmm",
"mmmmmmm od.$$$...$$2.go:mmmmmm",
"mmmmmmm od.$$...cx$1.ho mmmmmm",
"mmmmmmmm d.<<.....34.d mmmmmmm",
"mmmmm= mm oo.......ko mmmmmmmm",
"mmmmm=n mm .........;mmmmmmmmm",
"mmmmmm > mm  wowww# mmmmmmmmmm",
"mmmmmmm > m %wvwe#%#=mmmmmmmmm",
"mmmmmm-l>>-q%&v&%%### mmmmmmmm",
"mmmmmmm 806##&&&###97 mmmmmmmm",
"mmmmmm %5** #&&&###97 mmmmmmmm",
"mmmmmmm  mm #&&&###97 mmmmmmmm",
"mmmmmmmmmmm #&%&###.;mmmmmmmmm",
"mmmmmmmmmmm #%%%###9 mmmmmmmmm",
"mmmmmmmmmmm %%% %%%  mmmmmmmmm",
"mmmmmmmmmmmm % m  % mmmmmmbmmm",
"mmmmmmmmmmmm % mm % mmmmbmmmmm",
"mmmmmmmmmmmm % mm % mmmmmmmmmm",
"mmmmmmmmmmmm , mm , mmmmmmmmmm"
};
