/* XPM */
static char *e0a8dac865994d6de8b5419d08359e4dBR6rnqhFKc7VBSey[] = {
/* columns rows colors chars-per-pixel */
"30 30 128 2 ",
"   c #9C7B4A",
".  c #947B52",
"X  c #947B4A",
"o  c #94734A",
"O  c #8C734A",
"+  c #8C7342",
"@  c #846B42",
"#  c #846B39",
"$  c #7B6B42",
"%  c #7B6B39",
"&  c #7B6339",
"*  c #6B5229",
"=  c #635229",
"-  c #5A4A29",
";  c #5A4221",
":  c #5A5A29",
">  c #5A5221",
",  c #635A29",
"<  c #524A21",
"1  c #6B6339",
"2  c #736B42",
"3  c #635A31",
"4  c #847B52",
"5  c #7B6B31",
"6  c #635A39",
"7  c #5A4A18",
"8  c #736331",
"9  c #8C7B42",
"0  c #948452",
"q  c #635221",
"w  c #6B5A29",
"e  c #847342",
"r  c #8C7B4A",
"t  c #524218",
"y  c #5A4A21",
"u  c #6B5A31",
"i  c #736339",
"p  c #84734A",
"a  c #8C7B52",
"s  c #846B31",
"d  c #947B42",
"f  c #7B6331",
"g  c #524221",
"h  c #635231",
"j  c #6B5A39",
"k  c #7B6B4A",
"l  c #5A4218",
"z  c #9C845A",
"x  c #523910",
"c  c #634A21",
"v  c #735A31",
"b  c #524229",
"n  c #5A4A31",
"m  c #846331",
"M  c #8C6B39",
"N  c #947342",
"B  c #635239",
"V  c #634A29",
"C  c #6B5231",
"Z  c #7B6342",
"A  c #846B4A",
"S  c #8C7352",
"D  c #947B5A",
"F  c #846339",
"G  c #8C6B42",
"H  c #9C7B52",
"J  c #634221",
"K  c #946B42",
"L  c #5A4229",
"P  c #7B5A39",
"I  c #9C734A",
"U  c #634A31",
"Y  c #8C6B4A",
"T  c #947352",
"R  c #9C7B5A",
"E  c #524231",
"W  c #9C7352",
"Q  c #634229",
"!  c #94735A",
"~  c #5A4231",
"^  c None",
"/  c black",
"(  c black",
")  c black",
"_  c black",
"`  c black",
"'  c black",
"]  c black",
"[  c black",
"{  c black",
"}  c black",
"|  c black",
" . c black",
".. c black",
"X. c black",
"o. c black",
"O. c black",
"+. c black",
"@. c black",
"#. c black",
"$. c black",
"%. c black",
"&. c black",
"*. c black",
"=. c black",
"-. c black",
";. c black",
":. c black",
">. c black",
",. c black",
"<. c black",
"1. c black",
"2. c black",
"3. c black",
"4. c black",
"5. c black",
"6. c black",
"7. c black",
"8. c black",
"9. c black",
"0. c black",
"q. c black",
"w. c black",
"e. c black",
"r. c black",
"t. c black",
"y. c black",
"u. c black",
/* pixels */
"$ % # A L g @ + M N + + . . @ & O O O O + + O p $ $ % % % % ",
"Z & # @ L g O + N o N + . . @ & O O O O O O + + & & & & & & ",
". X o H . O # N X N X o X . # # % # # @ - ; X I           X ",
"T T . T o X O o X N X X O . % % % % % $ - l . X o o o T T o ",
"; ; g l = * C h = w * * h 3 < - - - - y = = 3 , w * * = g ; ",
"- - b L j = = = = , 1 j u u t - - - - - u 3 3 j h h h h < - ",
"O O . . . . . . . . - ; $ # 0 o O O @ @ + r O O . . . O O a ",
"    N N N o o o T H V V & f N       N N M + O o I I o     + ",
"& & % % % % % & & & z . O O o O & $ $ % Z k - J X o # & % 2 ",
"& & & & & & & & & & X . O O O O & @ $ % @ k - V . X # & % $ ",
". H + O O + + + . H X X & @ # @ @ @ # # H     d           9 ",
"T O + O S @ @ O . . . . $ $ $ @ @ @ @ @ . O O O X X X X X r ",
"; y = = t L ; 7 = q = = h h g < < g < L L U - - = = = = = - ",
"; 7 * * ; ; ; l * * , , = h g g g - n - L g g ; = = = = = = ",
". X o . . . . . X o % # a . % @ @ k - n Z $ $ @ O O X X X X ",
"    H R ! O Y I o . @ & . . $ i % P ; c G @ & % G o W W W o ",
"+ + # $ - l H o X . X o T . $ % . o + + O + % % % & % % % F ",
"O O f $ y x o   X . T H W . @ & H   M N O O @ % % & 8 & & @ ",
"W o o o F i & F & @ o o o O & & X o o X % & e G o o o o o o ",
". . X r & $ & F # & . H H . % % . H D . % & O o . . . . . H ",
": , 3 3 3 6 L L 3 3 3 h b g B 3 g b E ~ - - h h h h h h h B ",
"* * = = , 3 ; V , q = = l ; = * ; ; ; ; ; ; * * * * * * * h ",
"o T & & % $ $ $ % 5 X X o . @ O & & T . . . X X X X X X X O ",
"H . & & % # p $ & f o X X o O p & # X X . X X   X X X o o r ",
"X X X X e T V y O O + + F & @ $ $ @ # & @ @ O + # @ O O . 4 ",
"X X o o G S L L O O + O & % % m k 2 G m 5 % 9 e # # + + X 9 ",
"X X . X F # % # f s 5 5 X X X X - g O o I o K N I I o I I r ",
". . . a % % Z $ $ # $ & . . T . y - a . . . X X X . . . a p ",
"w w w , u u L ~ - - - - U Q Q L - - ; = u 3 u u , , 3 3 - - ",
"3 3 = = 3 w - - - - y y = > > L - - - - = = = = u v v C U n "
};
