/* XPM */
static char *_908d4cff56f47bff0364abf4f26b8b0YxBTLs7mQOXGIW97[] = {
/* columns rows colors chars-per-pixel */
"30 30 256 2 ",
"   c #F1D0BD",
".  c #7F1A1E",
"X  c #30433D",
"o  c #1E2724",
"O  c #14191D",
"+  c #090305",
"@  c #801B1E",
"#  c #781B1E",
"$  c #080001",
"%  c #070001",
"&  c #211A1B",
"*  c #261F20",
"=  c #0B0002",
"-  c #0A0405",
";  c #0C0607",
":  c #201A1B",
">  c #080304",
",  c #0A0103",
"<  c #050102",
"1  c #060203",
"2  c #090506",
"3  c #070002",
"4  c #0B0104",
"5  c #0A0305",
"6  c #080204",
"7  c #040102",
"8  c #0A0406",
"9  c #0D0709",
"0  c #130D0F",
"q  c #070204",
"w  c #0D070A",
"e  c #0A0307",
"r  c #090608",
"t  c #090609",
"y  c #050506",
"u  c #15191E",
"i  c #000102",
"p  c #040608",
"a  c #14181C",
"s  c #101519",
"d  c #10171C",
"f  c #13191C",
"g  c #131A1D",
"h  c #4D646E",
"j  c #4F646D",
"k  c #58686E",
"l  c #54666C",
"z  c #425356",
"x  c #4B5E61",
"c  c #223638",
"v  c #000101",
"b  c #081313",
"n  c #293F3F",
"m  c #283F3E",
"M  c #1D3432",
"N  c #263F3D",
"B  c #0C1615",
"V  c #233836",
"C  c #1A3330",
"Z  c #1F3835",
"A  c #27403D",
"S  c #2B423F",
"D  c #2F4542",
"F  c #0B1816",
"G  c #2F4441",
"H  c #2F423F",
"J  c #3B4E4B",
"K  c #213935",
"L  c #000504",
"P  c #1E3732",
"I  c #233C37",
"U  c #101A18",
"Y  c #304440",
"T  c #2F423E",
"R  c #02100D",
"E  c #3B4D49",
"W  c #0B1311",
"Q  c #2F443F",
"!  c #2A3A36",
"~  c #141817",
"^  c #2B423C",
"/  c #2E453F",
"(  c #2E443E",
")  c #30433E",
"_  c #31433E",
"`  c #0C1613",
"'  c #233B34",
"]  c #2D413B",
"[  c #30453F",
"{  c #2F433D",
"}  c #30413C",
"|  c #12251F",
" . c #314740",
".. c #2E413B",
"X. c #384E47",
"o. c #31443E",
"O. c #12261F",
"+. c #2F443D",
"@. c #31463F",
"#. c #324740",
"$. c #30443D",
"%. c #334841",
"&. c #344942",
"*. c #344841",
"=. c #2F413B",
"-. c #1F2523",
";. c #08130F",
":. c #30433C",
">. c #31443D",
",. c #384B44",
"<. c #2D3F38",
"1. c #31433C",
"2. c #31473E",
"3. c #293832",
"4. c #121714",
"5. c #363A37",
"6. c #080A08",
"7. c #040504",
"8. c #040402",
"9. c #262622",
"0. c #C9B47B",
"q. c #CDB67C",
"w. c #CCB47B",
"e. c #C3AE77",
"r. c #C3AE78",
"t. c #C3AE79",
"y. c #CDB781",
"u. c #CDB881",
"i. c #C4AB70",
"p. c #C2A973",
"a. c #C2AA75",
"s. c #C9B17A",
"d. c #C4AD77",
"f. c #C2AA76",
"g. c #B6A171",
"h. c #A78D5B",
"j. c #987A48",
"k. c #937647",
"l. c #8E7448",
"z. c #8F754A",
"x. c #67563A",
"c. c #9A7946",
"v. c #7E623A",
"b. c #927345",
"n. c #987748",
"m. c #947546",
"M. c #947547",
"N. c #9A794A",
"B. c #9A7B4C",
"V. c #816339",
"C. c #987545",
"Z. c #916F42",
"A. c #795E38",
"S. c #947448",
"D. c #685439",
"F. c #775E3F",
"G. c #FFE9D2",
"H. c #E2B891",
"J. c #EBD1BA",
"K. c #FFE5CE",
"L. c #DFC0A7",
"P. c #FBE0CC",
"I. c #F5D4BE",
"U. c #FDDDC7",
"Y. c #F8D9C3",
"T. c #F4D6C1",
"R. c #F3D5C0",
"E. c #F5D7C3",
"W. c #FCDFCB",
"Q. c #FFE3CF",
"!. c #F1D0BC",
"~. c #F2D0BD",
"^. c #F8D6C4",
"/. c #F1D0BF",
"(. c #322C29",
"). c #110F0E",
"_. c #232120",
"`. c #967669",
"'. c #1F1A18",
"]. c #3E1E14",
"[. c #614238",
"{. c #DCAC9D",
"}. c #DBAC9C",
"|. c #210B05",
" X c #271C19",
".X c #DDAB9C",
"XX c #DAAA9C",
"oX c #1F0A05",
"OX c #33130B",
"+X c #411F16",
"@X c #351912",
"#X c #3F1F17",
"$X c #261E1C",
"%X c #38160F",
"&X c #441F17",
"*X c #A75949",
"=X c #301D19",
"-X c #2F1D19",
";X c #130E0D",
":X c #1D0501",
">X c #0A0403",
",X c #271C1A",
"<X c #2F1511",
"1X c #261D1C",
"2X c #130000",
"3X c #100000",
"4X c #0E0000",
"5X c #060000",
"6X c #050000",
"7X c #030000",
"8X c #020000",
"9X c #010000",
"0X c #3A0E0D",
"qX c #0C0303",
"wX c #0F0808",
"eX c #0E0808",
"rX c #060404",
"tX c #261B1B",
"yX c #130E0E",
"uX c #040303",
"iX c #242020",
"pX c black",
"aX c None",
"sX c black",
"dX c black",
"fX c black",
"gX c black",
"hX c black",
"jX c black",
"kX c black",
"lX c black",
"zX c black",
"xX c black",
"cX c black",
"vX c black",
"bX c black",
"nX c black",
"mX c black",
"MX c black",
"NX c black",
"BX c black",
"VX c black",
"CX c black",
"ZX c black",
"AX c black",
"SX c black",
"DX c black",
"FX c black",
"GX c black",
"HX c black",
"JX c black",
"KX c black",
"LX c black",
"PX c black",
"IX c black",
"UX c black",
/* pixels */
"aXaXaXaXaXaXaXaXaXaXaXaX+ + + + + + aXaXaXaXaXaXaXaXaXaXaXaX",
"aXaXaXaXaXaXaXaXaXaX+ 2 O.O.O.O.O.| eX+ aXaXaXaXaXaXaXaXaXaX",
"aXaXaXaXaXaXaXaXaX> _ *.t.t.t.e.e.B.S X 5XaXaXaXaXaXaXaXaXaX",
"aXaXaXaXaXaXaXaX, G c r.d.d.d.h.k.k.m.n [ % aXaXaXaXaXaXaXaX",
"aXaXaXaXaXaXaXaX= A S.l.X X X X X X n.k.m 5XaXaXaXaXaXaXaXaX",
"aXaXaXaXaXaXaX7Xl h c.X ) >.o.X X X ..C.N k 3 aXaXaXaXaXaXaX",
"aXaXaXaXaXaXaX1 j j.$.#.x J E [ +.X Y 3.V.z uXaXaXaXaXaXaXaX",
"aXaXaXaXaXaX;Xq.D z.@.o X X X o $.X -.<.A./ s.yXaXaXaXaXaXaX",
"aXaXaXaXaX+ a.Z.w.Q H o :.X X o $.1.5.T $.q.b.f.+ aXaXaXaXaX",
"aXaXaXaXaX+ M.M.p. .o   o =.X o } o E.o +.i.M.M.+ aXaXaXaXaX",
"aXaXaXaXaX+ t.t.N.^ o     o !   o     o ] N.q.q.+ aXaXaXaXaX",
"aXaXaXaXaXaX5 N.X K   0X0X  o   o 0X0XU.' X N.5 aXaXaXaXaXaX",
"aXaXaXaXaXaXq ` H.P   *X*X        *X*XY.' H.U + aXaXaXaXaXaX",
"aXaXaXaXaXaXaXrXW Z {..X~.        !.XX}.I ;.- aXaXaXaXaXaXaX",
"aXaXaXaXaXaXaXaX$ ,.6.T.            R.7.2.% aXaXaXaXaXaXaXaX",
"aXaXaXaXaXaXaXaX, &.B L v 4X:X3X4XR L F { % aXaXaXaXaXaXaXaX",
"aXaXaXaXaXaXaXaX, ( X.9.  `.W.P.[.Q.~ %.X % aXaXaXaXaXaXaXaX",
"aXaXaXaXaXaXaXaX, X C J.OXx.F.%X].2X|.G.V % aXaXaXaXaXaXaXaX",
"aXaXaXaXaXaXaXaX, M I.~.L.D.d f f u O 6XK.9XaXaXaXaXaXaXaXaX",
"aXaXaXaXaXaXaXaXaXw b 4.v.oX<X+X+X+Xu.^.  pXaXaXaXaXaXaXaXaX",
"aXaXaXaXaXaXaXaXaXaX8.g.; O -X& O #Xr 6 0.t.8X7 aXaXaXaXaXaX",
"aXaXaXaXaXaXaXaXaXpXy.4 9 O =X: O #Xt aXpX8 t.t.+ aXaXaXaXaX",
"aXaXaXaXaXaXaXaXaXqX>Xe O ,X1Xg O s &X< aXaXpX5 aXaXaXaXaXaX",
"aXaXaXaXaXaXaXaXaXaXwXO O tX XO a O @X7 aXaXaXaXaXaXaXaXaXaX",
"aXaXaXaXaXaXaXaXaXaXwXO O tX XO a O @X7 aXaXaXaXaXaXaXaXaXaX",
"aXaXaXaXaXaXaXaXaXwXO O tX. . . _.O i 5 aXaXaXaXaXaXaXaXaXaX",
"aXaXaXaXaXaXaXaXaXp @ .   . . . _./.i 5 aXaXaXaXaXaXaXaXaXaX",
"aXaXaXaXaXaXaXaXy . . # $X* + . iX/.).aXaXaXaXaXaXaXaXaXaXaX",
"aXaXaXaXaXaXaXaX+ + 6 8 '.aXaX+ + (.).aXaXaXaXaXaXaXaXaXaXaX",
"aXaXaXaXaXaXaXaXaXaXaX+ + aXaXaXaX0 aXaXaXaXaXaXaXaXaXaXaXaX"
};
