/* XPM */
static char *_ea92a9387424fc4853bf65ec168d5a7yJFWMuGDpPiTefNr[] = {
/* columns rows colors chars-per-pixel */
"30 30 128 2 ",
"   c #9C7B4A",
".  c #947B52",
"X  c #947B4A",
"o  c #94734A",
"O  c #8C734A",
"+  c #8C7342",
"@  c #846B42",
"#  c #846B39",
"$  c #7B6B42",
"%  c #7B6B39",
"&  c #7B6339",
"*  c #6B5229",
"=  c #635229",
"-  c #5A4A29",
";  c #5A4221",
":  c #4B4B4B",
">  c #5A5A29",
",  c #5A5221",
"<  c #635A29",
"1  c #524A21",
"2  c #6B6339",
"3  c #736B42",
"4  c #635A31",
"5  c #847B52",
"6  c #7B6B31",
"7  c #635A39",
"8  c #5A4A18",
"9  c #736331",
"0  c #8C7B42",
"q  c #948452",
"w  c #635221",
"e  c #6B5A29",
"r  c #847342",
"t  c #8C7B4A",
"y  c #524218",
"u  c #5A4A21",
"i  c #6B5A31",
"p  c #736339",
"a  c #84734A",
"s  c #8C7B52",
"d  c #846B31",
"f  c #947B42",
"g  c #7B6331",
"h  c #524221",
"j  c #635231",
"k  c #6B5A39",
"l  c #7B6B4A",
"z  c #5A4218",
"x  c #9C845A",
"c  c #FFE1AD",
"v  c #5A564F",
"b  c #523910",
"n  c #735A31",
"m  c #FCC876",
"M  c #EBBB6E",
"N  c #E3B56A",
"B  c #AF8C52",
"V  c #AE8B51",
"C  c #FFCB78",
"Z  c #FFCD78",
"A  c #FDCA77",
"S  c #D4A964",
"D  c #BF995A",
"F  c #856C43",
"G  c #524229",
"H  c #5A4A31",
"J  c #846331",
"K  c #8C6B39",
"L  c #947342",
"P  c #635239",
"I  c #634A29",
"U  c #6B5231",
"Y  c #7B6342",
"T  c #846B4A",
"R  c #8C7352",
"E  c #947B5A",
"W  c #846339",
"Q  c #8C6B42",
"!  c #9C7B52",
"~  c #634221",
"^  c #946B42",
"/  c #5A4229",
"(  c #9C734A",
")  c #634A31",
"_  c #8C6B4A",
"`  c #947352",
"'  c #9C7B5A",
"]  c #524231",
"[  c #9C7352",
"{  c #634229",
"}  c #94735A",
"|  c #5A4231",
" . c None",
".. c black",
"X. c black",
"o. c black",
"O. c black",
"+. c black",
"@. c black",
"#. c black",
"$. c black",
"%. c black",
"&. c black",
"*. c black",
"=. c black",
"-. c black",
";. c black",
":. c black",
">. c black",
",. c black",
"<. c black",
"1. c black",
"2. c black",
"3. c black",
"4. c black",
"5. c black",
"6. c black",
"7. c black",
"8. c black",
"9. c black",
"0. c black",
"q. c black",
"w. c black",
"e. c black",
"r. c black",
"t. c black",
"y. c black",
"u. c black",
/* pixels */
"$ % # T / h @ + K L + + . . @ & O O O O + + O a $ $ % % % % ",
"Y & # @ / h O + L o L + . . @ & O O O O O O + + & & & & & & ",
". X o ! . O # L X L X o X . # # % # # @ - ; X (           X ",
"` ` . ` o X O o X L X X O . % % % % % $ - z . X o o o ` ` o ",
"; ; h z = * U j = e * * j 4 1 - - - - u = = 4 < e * * = h ; ",
"- - G / k = = = = < 2 k i i y - - - - - i 4 4 k j j j j 1 - ",
"O O . . . . . . . . - ; $ # q o O O @ @ + t O O . . . O O s ",
"    L L L o o o ` ! I I & g L       L L K + O o ( ( o     + ",
"& & % % % % % & & & x . O O o O & N m C Y l - ~ X o # & % 3 ",
"& & & & & & & & & & X . O O O O N N M A F l - I . X # & % $ ",
". ! + O O + + + . ! X X & @ # N c B V v :     f           0 ",
"` O + O R @ @ O . . . . $ $ N c c Z S : : O O O X X X X X t ",
"; u = = y / ; 8 = w = = j j N c c B B : / ) - - = = = = = - ",
"; 8 * * ; ; ; z * * < < = j N B Z N S : / h h ; = = = = = = ",
". X o . . . . . X o % # N B C C N B S : Y $ $ @ O O X X X X ",
"    ! ' } O _ ( o . @ N B c c B S S V : Q @ & % Q o [ [ [ o ",
"+ + # $ - z ! o X . X c c B D V V D : + O + % % % & % % % W ",
"O O g $ u b o   X . N c N S B : : : : L O O @ % % & 9 & & @ ",
"[ o o o W p & W & @ S S D V D : X o o X % & r Q o o o o o o ",
". . X t & $ & W # : : V V : : : . ! E . % & O o . . . . . ! ",
"> < 4 4 4 7 / / 4 : : : : : : 4 h G ] | - - j j j j j j j P ",
"* * = = < 4 ; I < w : : : ; = * ; ; ; ; ; ; * * * * * * * j ",
"o ` & & % $ $ $ % 6 X X o . @ O & & ` . . . X X X X X X X O ",
"! . & & % # a $ & g o X X o O a & # X X . X X   X X X o o t ",
"X X X X r ` I u O O + + W & @ $ $ @ # & @ @ O + # @ O O . 5 ",
"X X o o Q R / / O O + O & % % J l 3 Q J 6 % 0 r # # + + X 0 ",
"X X . X W # % # g d 6 6 X X X X - h O o ( o ^ L ( ( o ( ( t ",
". . . s % % Y $ $ # $ & . . ` . u - s . . . X X X . . . s a ",
"e e e < i i / | - - - - ) { { / - - ; = i 4 i i < < 4 4 - - ",
"4 4 = = 4 e - - - - u u = , , / - - - - = = = = i n n U ) H "
};
