/* XPM */
static char *d778ab19d4c140cea6727b87698c7d14NUkJ0o7WJukQX5yz[] = {
/* columns rows colors chars-per-pixel */
"30 30 16 1 ",
"  c #4B4B4B",
". c #FFE1AD",
"X c #FFCD78",
"o c #FFCB78",
"O c #E3B56A",
"+ c #D4A964",
"@ c #BF995A",
"# c #AF8C52",
"$ c #AE8B51",
"% c #FCC876",
"& c #EBBB6E",
"* c #FFCC7A",
"= c #DCB16B",
"- c #FFFEFD",
"; c None",
": c black",
/* pixels */
";;;;;;;;;;;;;;;;;;;;;;;;;;;;;;",
";;;;;;;;;;;;;;;;;;;;;;;;;;;;;;",
";;;;;;;;;;;;;;;;;;;;;;;;;;;;;;",
";;;;;;;;;;;;;;;;;;;;;;;;;;;;;;",
";;;;;;;;;;;;;;;;;;;;;;;;;;;;;;",
";;;;;;;;;;;;;;;;;;;;;;;;;;;;;;",
";;;;;;;;;;;;;;;;;;;;;;;;;;;;;;",
";;;;;;;;;;;;;;;;;;;;;;;;;;;;;;",
";;;;;;;;;;;;;;;;;O%;;;;;;;;;;;",
";;;;;;;;;;;;;;;;OO&*-;;;;;;;;;",
";;;;;;;;;;;;;;;O.#$= ;;;;;;;;;",
";;;;;;;;;;;;;;O..X+  ;;;;;;;;;",
";;;;;;;;;;;;;;O..## ;;;;;;;;;;",
";;;;;;;;;;;;;;O#XO+ ;;;;;;;;;;",
";;;;;;;;;;;;O#ooO#+ ;;;;;;;;;;",
";;;;;;;;;;;O#..#++$ ;;;;;;;;;;",
";;;;;;;;;;;..#@$$@ ;;;;;;;;;;;",
";;;;;;;;;;O.O+#    ;;;;;;;;;;;",
";;;;;;;;;;++@$@ ;;;;;;;;;;;;;;",
";;;;;;;;;  $$   ;;;;;;;;;;;;;;",
";;;;;;;;;      ;;;;;;;;;;;;;;;",
";;;;;;;;;;   ;;;;;;;;;;;;;;;;;",
";;;;;;;;;;;;;;;;;;;;;;;;;;;;;;",
";;;;;;;;;;;;;;;;;;;;;;;;;;;;;;",
";;;;;;;;;;;;;;;;;;;;;;;;;;;;;;",
";;;;;;;;;;;;;;;;;;;;;;;;;;;;;;",
";;;;;;;;;;;;;;;;;;;;;;;;;;;;;;",
";;;;;;;;;;;;;;;;;;;;;;;;;;;;;;",
";;;;;;;;;;;;;;;;;;;;;;;;;;;;;;",
";;;;;;;;;;;;;;;;;;;;;;;;;;;;;;"
};
