/* XPM */
static char *debec494d3fe4e42f255d24c522e4f42IBpmh6QvzLKZ9nun[] = {
/* columns rows colors chars-per-pixel */
"30 30 64 1 ",
"  c #663300",
". c black",
"X c white",
"o c #CCCC99",
"O c #CC9933",
"+ c gray60",
"@ c #999966",
"# c #996600",
"$ c #777777",
"% c #444444",
"& c #5A5A29",
"* c #5A5221",
"= c #736B42",
"- c #635A31",
"; c #847B52",
": c #7B6B39",
"> c #8C7B42",
", c #6B5A29",
"< c #8C7B4A",
"1 c #5A4A21",
"2 c #635229",
"3 c #6B5A31",
"4 c #7B6B42",
"5 c #84734A",
"6 c #8C7B52",
"7 c #524221",
"8 c #846B39",
"9 c #5A4A29",
"0 c #8C7342",
"q c #635231",
"w c #947B4A",
"e c #7B6339",
"r c #6B5229",
"t c #735A31",
"y c #846B42",
"u c #8C734A",
"i c #5A4A31",
"p c #947B52",
"a c #8C6B39",
"s c #947342",
"d c #9C7B4A",
"f c #635239",
"g c #5A4221",
"h c #6B5231",
"j c #7B6342",
"k c #846B4A",
"l c #846339",
"z c #94734A",
"x c #9C7B52",
"c c #5A4229",
"v c #634A31",
"b c #947352",
"n c #9C7352",
"m c #AAAAAA",
"M c #888888",
"N c gray40",
"B c None",
"V c black",
"C c black",
"Z c black",
"A c black",
"S c black",
"D c black",
"F c black",
/* pixels */
"4:8kc7y0as00ppyeuuuu00u544::::",
"j............................e",
"p............................w",
"b..                        ..z",
"g..                        ..g",
"9..  $$$$$$$$$$$$$$$$@@@@  ..9",
"u..  $$$$$$$$$$$$$$$$@@@@  ..6",
"d..  $$XXXXXXMM%%%%++@@XX  ..0",
"e..  $$XXXXXXMM%%%%++@@XX  ..=",
"e..  $$XXmmNN%%%%%%++XX@@  ..4",
"p..  $$XXmmNN%%%%%%++XX@@  ..>",
"b..  $$XXNN%%%%%%%%++@@@@  ..<",
"g..  $$XXNN%%%%%%%%++@@@@  ..9",
"g..  $$MM%%%%%%%%%%++oooo  ..2",
"p..  $$MM%%%%%%%%%%++oooo  ..w",
"d..  $$%%%%%%%%%%%%++oooo  ..z",
"0..  $$%%%%%%%%%%%%++oooo  ..l",
"u..  ++++++++++++++++@@@@  ..y",
"n..  ++++++++++++++++@@@@  ..z",
"p..                        ..x",
"&..                        ..f",
"r..  ##OO##OO##OO##OO##OO  ..q",
"z..  ##OO##OO##OO##OO##OO  ..u",
"x..  OO##OO##OO##OO##OO##  ..<",
"w..  OO##OO##OO##OO##OO##  ..;",
"w..                        ..>",
"w..                        ..<",
"p............................5",
",............................9",
"--22-,9999112**c999922223tthvi"
};
