/* XPM */
static char *_9f065286a37424c8958f66365b57ebe8Qh8Hb6ZWr8BY9aN[] = {
/* columns rows colors chars-per-pixel */
"30 30 16 1 ",
"  c #663300",
". c black",
"X c white",
"o c #CCCC99",
"O c #CC9933",
"+ c gray60",
"@ c #999966",
"# c #996600",
"$ c gray40",
"% c #777777",
"& c #444444",
"* c #AAAAAA",
"= c #888888",
"- c None",
"; c black",
": c black",
/* pixels */
"------------------------------",
"-............................-",
"-............................-",
"-..                        ..-",
"-..                        ..-",
"-..  %%%%%%%%%%%%%%%%@@@@  ..-",
"-..  %%%%%%%%%%%%%%%%@@@@  ..-",
"-..  %%XXXXXX==&&&&++@@XX  ..-",
"-..  %%XXXXXX==&&&&++@@XX  ..-",
"-..  %%XX**$$&&&&&&++XX@@  ..-",
"-..  %%XX**$$&&&&&&++XX@@  ..-",
"-..  %%XX$$&&&&&&&&++@@@@  ..-",
"-..  %%XX$$&&&&&&&&++@@@@  ..-",
"-..  %%==&&&&&&&&&&++oooo  ..-",
"-..  %%==&&&&&&&&&&++oooo  ..-",
"-..  %%&&&&&&&&&&&&++oooo  ..-",
"-..  %%&&&&&&&&&&&&++oooo  ..-",
"-..  ++++++++++++++++@@@@  ..-",
"-..  ++++++++++++++++@@@@  ..-",
"-..                        ..-",
"-..                        ..-",
"-..  ##OO##OO##OO##OO##OO  ..-",
"-..  ##OO##OO##OO##OO##OO  ..-",
"-..  OO##OO##OO##OO##OO##  ..-",
"-..  OO##OO##OO##OO##OO##  ..-",
"-..                        ..-",
"-..                        ..-",
"-............................-",
"-............................-",
"------------------------------"
};
