/* XPM */
static char *_d81aa9d22604698f3f4c3313032381esyLjNEZQysf4Puz1[] = {
/* columns rows colors chars-per-pixel */
"30 30 256 2 ",
"   c #6E605D",
".  c #695C54",
"X  c #675952",
"o  c #54392D",
"O  c #563B2F",
"+  c #573E33",
"@  c #62473B",
"#  c #65534B",
"$  c #665750",
"%  c #65564F",
"&  c #695A53",
"*  c #72635C",
"=  c #6C5F59",
"-  c #5E3F32",
";  c #593D31",
":  c #67564F",
">  c #695851",
",  c #6D5D56",
"<  c #6C5C55",
"1  c #6E5E57",
"2  c #685A54",
"3  c #6F605A",
"4  c #663A2A",
"5  c #603C2F",
"6  c #654134",
"7  c #67544D",
"8  c #68554E",
"9  c #67554E",
"0  c #6E5C55",
"q  c #695852",
"w  c #65554F",
"e  c #6E5E58",
"r  c #6B5D58",
"t  c #49261B",
"y  c #5F3224",
"u  c #4A281D",
"i  c #613527",
"p  c #4D2A1F",
"a  c #563023",
"s  c #4F2C21",
"d  c #4A2A20",
"f  c #643A2C",
"g  c #62382B",
"h  c #5D3629",
"j  c #502E23",
"k  c #492A20",
"l  c #4B2C22",
"z  c #663C2F",
"x  c #643C2F",
"c  c #513126",
"v  c #673E31",
"b  c #5D392D",
"n  c #553429",
"m  c #56352A",
"M  c #513228",
"N  c #53352B",
"B  c #65524C",
"V  c #685650",
"C  c #6A5A55",
"Z  c #70605B",
"A  c #655854",
"S  c #472318",
"D  c #854532",
"F  c #7A402F",
"G  c #834433",
"H  c #814332",
"J  c #542C21",
"K  c #4A271D",
"L  c #7D4232",
"P  c #572E23",
"I  c #4B281E",
"U  c #723D2E",
"Y  c #6D3A2C",
"T  c #784131",
"R  c #5B3125",
"E  c #4C291F",
"W  c #864938",
"Q  c #6F3C2E",
"!  c #4F2B21",
"~  c #623629",
"^  c #583025",
"/  c #532E23",
"(  c #512D22",
")  c #7B4334",
"_  c #6A3A2D",
"`  c #613629",
"'  c #613529",
"]  c #5A3126",
"[  c #5A3226",
"{  c #62362A",
"}  c #5B3327",
"|  c #593126",
" . c #542F24",
".. c #4D2B21",
"X. c #7F4737",
"o. c #7D4536",
"O. c #66392C",
"+. c #64382B",
"@. c #563025",
"#. c #48281F",
"$. c #6A3B2E",
"%. c #673A2D",
"&. c #5E3529",
"*. c #573126",
"=. c #553025",
"-. c #4E2C22",
";. c #47281F",
":. c #6D3D30",
">. c #6B3C2F",
",. c #5D3429",
"<. c #593227",
"1. c #522E24",
"2. c #492920",
"3. c #834A3A",
"4. c #7C4637",
"5. c #7A4536",
"6. c #61372B",
"7. c #5A3328",
"8. c #512E24",
"9. c #4D2C22",
"0. c #62382C",
"q. c #5E352A",
"w. c #7E4839",
"e. c #754335",
"r. c #64392D",
"t. c #5F362B",
"y. c #5A3429",
"u. c #7A4738",
"i. c #764436",
"p. c #663B2F",
"a. c #533026",
"s. c #61382D",
"d. c #673C30",
"f. c #5E372C",
"g. c #734436",
"h. c #62392E",
"j. c #543228",
"k. c #502F26",
"l. c #623A2F",
"z. c #6A3F33",
"x. c #7B4A3C",
"c. c #653D31",
"v. c #633B30",
"b. c #613A2F",
"n. c #5A362C",
"m. c #673F33",
"M. c #653D32",
"N. c #4F3027",
"B. c #623C31",
"V. c #523229",
"C. c #653E33",
"Z. c #633D32",
"A. c #59372D",
"S. c #57362C",
"D. c #603C31",
"F. c #653F34",
"G. c #613C32",
"H. c #54342B",
"J. c #52332A",
"K. c #5B392F",
"L. c #51332A",
"P. c #694237",
"I. c #53352C",
"U. c #69453A",
"Y. c #5A3B32",
"T. c #65463D",
"R. c #6F615D",
"E. c #746662",
"W. c #834130",
"Q. c #814130",
"!. c #834333",
"~. c #783F30",
"^. c #804434",
"/. c #69382B",
"(. c #7F4435",
"). c #4C2920",
"_. c #7F4536",
"`. c #572F25",
"'. c #4B2920",
"]. c #64372B",
"[. c #532D24",
"{. c #5D3329",
"}. c #4D2B22",
"|. c #62372C",
" X c #61372C",
".X c #854C3D",
"XX c #704135",
"oX c #4F2E26",
"OX c #61392F",
"+X c #5E382E",
"@X c #663D33",
"#X c #5F3930",
"$X c #804D41",
"%X c #54332B",
"&X c #54342C",
"*X c #6D453B",
"=X c #623E35",
"-X c #57372F",
";X c #55372F",
":X c #644239",
">X c #573932",
",X c #614139",
"<X c #5D3F37",
"1X c #5B3F38",
"2X c #604F4B",
"3X c #5E4E4A",
"4X c #5C4D49",
"5X c #645450",
"6X c #61524E",
"7X c #6E5D59",
"8X c #6B5B57",
"9X c #6D5D59",
"0X c #695A56",
"qX c #685955",
"wX c #6B5C58",
"eX c #6D615E",
"rX c #503029",
"tX c #7D4D42",
"yX c #694942",
"uX c #54423E",
"iX c #564440",
"pX c #5F4C48",
"aX c #645552",
"sX c #635451",
"dX c #6D5E5B",
"fX c #6C5D5A",
"gX c #736461",
"hX c #6D5F5C",
"jX c #716360",
"kX c #6D605D",
"lX c #786A67",
"zX c #643A32",
"xX c #58332C",
"cX c #623932",
"vX c #643B34",
"bX c #56332D",
"nX c #53322C",
"mX c #58352F",
"MX c #55342E",
"NX c #69423B",
"BX c #643F38",
"VX c #554441",
"CX c #5B4946",
"ZX c #6E6260",
"AX c #746866",
"SX c #6D6260",
"DX c #726765",
"FX c #613731",
"GX c #625351",
"HX c #6F615F",
"JX c #736563",
"KX c #6F5F5D",
"LX c #716463",
"PX c #6F6362",
"IX c #6E5F5E",
"UX c None",
/* pixels */
"*Xm.C.g.W tX= P.c.4.3.3.w.m.m.3.g.Z.g.W $XDXU.c.u.3.3.w.m.*X",
"M.6.t.Q D x.2 h.&.~.H H L 6.g H Y h Q W.4.SXZ.&.T D G L  X@X",
"m.6.f ,.J S.CXh.g f O.O.O.0.0.%.+.6.0./.m.2 v.6.<. .@.=.8.A.",
"m.6.} | / -XGXy.| q. X,.| [ [ | q.0.&.P K.r B.{ 1.d ....9.H.",
"c.' p / ~ :XLX-.t [ +.a K I I K | O.^ S V.LXv.i ( I p p p j.",
"yX:X; Y.b @ HX+ o - 6 - O O O ;XK.5 K.o 1XdXT.:X; o -X-X-X<X",
"AXZXJXA VX3XeXZXLX0X$ r jXHXHX. 3XVXGXDXR.w kXZXZXhXq X X 3 ",
"P.l.b.:.L ) o.x l.h.h.s.6 kX7X_.>.f.h.b.z (.z b.e.o.L u.fXgX",
"v ` q.Q G H H +.6.` ` i B.hX7XG Q &.6.' 4 !.+.h ~.G Q._.R.E.",
"m.g =.{.$.+.[ @. .h 0.` Z.  9X7.&.|.} [.*.$.g  X} &._ d.3X5X",
"m.r.j a.r.y.#...).h f { Z.  fXl <.p.[ ;.s  X0.f j 8.+.#XuXCX",
"b *.! ( @.@.| ! ). . .R Z.  fX-./ a a *.] { *.a s s P xXsX0X",
";XoXM M N.n F.H.J.L.rXn.:XdXwXI.V.rXA.M.Z.M.H.L.J.J.rX>XR.E.",
"3XiX5X> V qXkX          fX: :     eXr % 2 kX          dX: , ",
"pXiXB 8 8 q hX9X9X9X9X9X9X: : 9X9X9XC 7 V hX9X9X9X9X9XwX8 0 ",
"3.L ^.^.H x.eXv.6.r.s.U w.HX3 l.h.h.r.~ 6 ZX=Xg s.h.h.p.^..X",
"g.:.' ].Y *XSXl.` | 1.' z.2X2Xs.}  .=.J n.r B.` 6.,. .=.i z ",
"Z.t.d j &.,XZXl.{ / 2.^ #XuXuXh. .d ..u V.> v.g r.,.d ..k M ",
"m.|.*.7.` ,XZXl.{ =.}. .n.6X2Xh.@...-.E &X= b | 7.*.-.-.-.H.",
"z i ~ ' y =XZX0.i J I t N.jXKX{ J K E K J.JXk.t u I E E E j.",
"U.C.Z.B.v.T.hX=Xv.A.N J.>XdX8XF.K.N V.oX>XjX>XJ.N N %X%X%XY.",
"AXPX& r PXhX9 X X kXPXPXeX9 : ZXZXLXA VX4XeXZXjXPXhXq & & 3 ",
"U.Z.B.B.G.z.4.5.4.z.#XXXx.$ 9 G.g.w.XXb x w.C.D.i.e.b.=XCX2X",
"v ` { { &./.!.H G _ ,.U X.% 7 t.U D U h 4 !.+.h F F ' FXVXpX",
"m.|.=.<. Xg _ } [ =.1.P +XfX8Xa.` :.O.6.g $.0.0.,.^ ( n B q ",
"m.|.-.a.0.6.t.9.d ..}.'.M dX8X9. .7.h g t.7.} ,.j ../ m > 1 ",
"v { !  .g ` ~ ! ).p p E c : # -.).I  .+.,.I ).).)./ ].zX$ , ",
"NXvXbXmXcXOXc.bXnXnXnXnX>Xq : MXV.c n.v G.nXV.M J.mXc.BX$ , ",
"< %   aXiX3XHX            dXdXR.C : C kXhX  q : fXIXhXhXdXjX",
"* < gX8XCX5XE.gXgXgXgXgXgXgXgXE.3 < Z JXgXgXe < jXgXgXgXgXlX"
};
