/* XPM */
static char *c7d56242f8cf49ace28d75311e97d3443Hsq763h7iUyuadX[] = {
/* columns rows colors chars-per-pixel */
"32 32 256 2 ",
"   c #6E605D",
".  c #695C54",
"X  c #655750",
"o  c #675952",
"O  c #553A2E",
"+  c #62473B",
"@  c #65534B",
"#  c #695A53",
"$  c #72635C",
"%  c #6C5F59",
"&  c #5E3F32",
"*  c #583D32",
"=  c #67564F",
"-  c #695851",
";  c #675750",
":  c #6D5D56",
">  c #6C5C55",
",  c #6E5E57",
"<  c #685A54",
"1  c #6F605A",
"2  c #663A2A",
"3  c #603C2F",
"4  c #654134",
"5  c #67544D",
"6  c #68554E",
"7  c #67554E",
"8  c #6E5C55",
"9  c #695852",
"0  c #65554F",
"q  c #6E5E58",
"w  c #6B5D58",
"e  c #49261B",
"r  c #5F3224",
"t  c #4A281D",
"y  c #613527",
"u  c #4D2A1F",
"i  c #563023",
"p  c #4F2C21",
"a  c #4A2A20",
"s  c #643A2C",
"d  c #62382B",
"f  c #5D3629",
"g  c #502E23",
"h  c #492A20",
"j  c #4B2C22",
"k  c #663C2F",
"l  c #643C2F",
"z  c #513126",
"x  c #673E31",
"c  c #684033",
"v  c #513228",
"b  c #53352B",
"n  c #65524C",
"m  c #6A5A55",
"M  c #70605B",
"N  c #655854",
"B  c #472318",
"V  c #854532",
"C  c #7A402F",
"Z  c #834533",
"A  c #814332",
"S  c #542C21",
"D  c #4A271D",
"F  c #7D4232",
"G  c #572E23",
"H  c #4B281E",
"J  c #7E4333",
"K  c #773F30",
"L  c #723D2E",
"P  c #6D3A2C",
"I  c #784131",
"U  c #5B3125",
"Y  c #4C291F",
"T  c #864938",
"R  c #6F3C2E",
"E  c #4F2B21",
"W  c #623629",
"Q  c #583025",
"!  c #532E23",
"~  c #512D22",
"^  c #7B4334",
"/  c #6A3B2D",
"(  c #613629",
")  c #613529",
"_  c #5A3126",
"`  c #5A3226",
"'  c #5B3327",
"]  c #593126",
"[  c #542F24",
"{  c #4D2B21",
"}  c #7F4737",
"|  c #7D4536",
" . c #66392C",
".. c #64382B",
"X. c #563025",
"o. c #48281F",
"O. c #673A2D",
"+. c #5E3529",
"@. c #573126",
"#. c #553025",
"$. c #4E2C22",
"%. c #47281F",
"&. c #844A3A",
"*. c #6D3D30",
"=. c #6B3C2F",
"-. c #62372B",
";. c #5D3429",
":. c #593227",
">. c #522E24",
",. c #492920",
"<. c #7C4637",
"1. c #7A4536",
"2. c #61372B",
"3. c #5F362A",
"4. c #5A3328",
"5. c #512E24",
"6. c #4D2C22",
"7. c #62382C",
"8. c #5E352A",
"9. c #754335",
"0. c #64392D",
"q. c #5A3429",
"w. c #7A4738",
"e. c #764436",
"r. c #663B2F",
"t. c #533026",
"y. c #61382D",
"u. c #734436",
"i. c #714235",
"p. c #62392E",
"a. c #673D31",
"s. c #543228",
"d. c #502F26",
"f. c #7B4A3B",
"g. c #623A2F",
"h. c #6A3F33",
"j. c #5D382D",
"k. c #653D31",
"l. c #633B30",
"z. c #613A2F",
"x. c #663D32",
"c. c #5A362C",
"v. c #673F33",
"b. c #653D32",
"n. c #55342A",
"m. c #4F3027",
"M. c #623C31",
"N. c #523229",
"B. c #653E33",
"V. c #633D32",
"C. c #59372D",
"Z. c #57362C",
"A. c #603C31",
"S. c #613C32",
"D. c #52332A",
"F. c #5B392F",
"G. c #51332A",
"H. c #694237",
"J. c #53352C",
"K. c #6D463B",
"L. c #55372E",
"P. c #69453A",
"I. c #5A3B32",
"U. c #65463D",
"Y. c #685651",
"T. c #6F615D",
"R. c #746662",
"E. c #834130",
"W. c #814130",
"Q. c #834333",
"!. c #7B4031",
"~. c #804434",
"^. c #69382B",
"/. c #7F4435",
"(. c #4C2920",
"). c #7F4536",
"_. c #572F25",
"`. c #4B2920",
"'. c #64372B",
"]. c #532D24",
"[. c #5D3329",
"{. c #83493A",
"}. c #4D2B22",
"|. c #7F4739",
" X c #62372C",
".X c #834A3B",
"XX c #61372C",
"oX c #854C3D",
"OX c #7C4739",
"+X c #5E362C",
"@X c #61392F",
"#X c #4E2E26",
"$X c #5E382E",
"%X c #5F3930",
"&X c #804D41",
"*X c #54332B",
"=X c #643E34",
"-X c #54342C",
";X c #623E35",
":X c #57372F",
">X c #644239",
",X c #573932",
"<X c #614139",
"1X c #5D3F37",
"2X c #5B3F38",
"3X c #554541",
"4X c #5E4E4A",
"5X c #5C4D49",
"6X c #645450",
"7X c #61524E",
"8X c #6E5D59",
"9X c #6B5B57",
"0X c #6D5D59",
"qX c #695A56",
"wX c #685955",
"eX c #6B5C58",
"rX c #6D615E",
"tX c #503029",
"yX c #7D4D42",
"uX c #694942",
"iX c #55433F",
"pX c #604E4A",
"aX c #645552",
"sX c #6D5E5B",
"dX c #6C5D5A",
"fX c #736461",
"gX c #6D5F5C",
"hX c #716360",
"jX c #6D605D",
"kX c #786A67",
"lX c #643A32",
"zX c #58332C",
"xX c #623932",
"cX c #643B34",
"vX c #56332D",
"bX c #53322C",
"nX c #58352F",
"mX c #55342E",
"MX c #69423B",
"NX c #643F38",
"BX c #554340",
"VX c #5B4946",
"CX c #6E6260",
"ZX c #746866",
"AX c #6D6260",
"SX c #726765",
"DX c #613731",
"FX c #5E4B48",
"GX c #625351",
"HX c #6F615F",
"JX c #736563",
"KX c #6F5F5D",
"LX c #716463",
"PX c #6F6362",
"IX c #6E5F5E",
"UX c None",
/* pixels */
"K.v.B.u.T yX% H.k.<.&.{.|.v.c &.u.V.u.T &XSXP.k.w.&.{.|.v.K.K.v.",
"x.2.3.R V f.< p.+.K A A !.2.-.A P f R E.OXAXV.+.I Z Z F XXx.x.2.",
"v.2.s ;.S Z.VXp.d s  . . .7.7.O...2.7.^.v.< l.2.:.[ X.#.5.C.v.2.",
"v.2.' ] ! :XGXq.] 8.XX;.] ` ` ] 8.7.+.G F.w M.-.>.a { { 6.*Xv.2.",
"a.) u ! W >XLX$.e ` ..i D H H D ]  .Q B N.LXl.y ~ H u u u s.a.) ",
"uX>X* F.j.+ HX* O & 4 & O O O L.F.3 F.L.2XsXU.>X* O L.:X:X1XuX>X",
"ZXCXJXN 3X4XrXCXLXm X dXhXHXHX. 4X3XGXSXT.0 jXCXCXgX9 o o 1 ZXCX",
"H.g.z.*.F ^ | l g.p.p.y.4 jX8X).=.j.p.z.k /.k z.9.| J w.dXfXH.g.",
"x ( 3.R A A A ..2.( ( y M.gX8XZ R +.2.) 2 Q...f K Z W.).T.R.x ( ",
"v.-.#.[./ ..` X.[ f 7.( V.  0X4.+. X' ].@./ -.XX' +./ a.4X6Xv.-.",
"c 0.g t.0.q.o.{ (.f s W V.  dXj :.r.` %.p XX7.s g 5...%XiXVXc 0.",
"j.@.E ~ X.X.] E (.[ [ U V.  dX$.! i i @._ W @.i p p G zX6XqXj.@.",
"L.#Xv v m.n.v.*XD.G.tXc.>XsXeXJ.N.tXC.b.V.b.n.G.D.D.tX,XT.R.L.#X",
"4X3X6X- Y.wXjX          dX= =     rXw = < jX          sX= : 4X3X",
"pXiXn 6 6 9 gX0X0X0X0X0X0X= = 0X0X0Xm 5 Y.gX0X0X0X0X0XeX6 8 pXiX",
".XJ ~.~.A yXrXl.2.0.y.L |.HX1 g.p.p.0.W 4 CX=Xd y.p.p.r.~.oX.XJ ",
"i.*.) '.P MXAXg.( ] >.) h.pXpXy.' [ #.S c.w M.( 2.;.[ #.y k i.*.",
"b.+Xa g +.<XCXg.W ! ,.Q %XiXiX7.[ a { t N.- l.-.0.;.a { h v b.+X",
"v. X@.4.( <XCXg.W #.}.[ c.7XpXp.X.{ $.Y -X% j.] 4.@.$.$.$.n.v. X",
"k y W ) r ;XCX7.y S H e m.hXKX-.S D Y D D.JXd.e t H Y Y Y s.k y ",
"P.=XV.M.l.U.gX;Xl.C.b D.,XsX9XB.F.b N.#X,XhX,XD.b b *X*X*XI.P.=X",
"ZXPX# w PXgX7 o o jXPXPXrX7 = CXCXLXN 3X5XrXCXhXPXgX9 # # 1 ZXPX",
"P.V.M.M.S.h.<.1.<.h.%Xi.f.X 7 S.i.|.i.j.l |.B.A.e.9.z.;XVXpXP.V.",
"x ( -.W +.^.Q.A Z / ;.L } 0 5 2.L V L f 2 Q...f C !.) DX3XFXx ( ",
"v. X#.:.XXd / ' ` #.>.G $XdX9Xt.( *. .2.d / 7.7.;.Q ~ n.n 9 v. X",
"v. X$.t.7.2.2.6.a { }.`.v sX9X6.[ 4.f d 3.4.' ;.g { ! n.- , v. X",
"x -.E [ d ( W E (.u u Y z = @ $.(.H [ ..;.H (.(.(.! '.lX; : x -.",
"MXcXvXnXxX@Xk.vXbXbXbXbX,X9 = mXN.z c.x S.bXN.v D.nXk.NX; : MXcX",
"> =   aXBX4XHX            sXsXT.m = m jXgX  9 = dXIXgXgXsXhX> = ",
"$ > fX9XVX6XR.fXfXfXfXfXfXfXfXR.1 > M JXfXfXq > hXfXfXfXfXkX$ > ",
"K.v.B.u.T yX% H.k.<.&.{.|.v.c &.u.V.u.T &XSXP.k.w.&.{.|.v.K.K.v.",
"x.2.3.R V f.< p.+.K A A !.2.-.A P f R E.OXAXV.+.I Z Z F XXx.x.2."
};
